<svg width="22" height="22" viewBox="0 0 22 22" fill="none" xmlns="http://www.w3.org/2000/svg">
<path d="M20.6788 14.1193C20.2929 13.7489 19.8145 13.6698 19.2943 13.8908C18.7178 14.1355 18.1337 14.3898 17.5696 14.6346C17.218 14.7879 16.8654 14.9413 16.5129 15.0927C15.8821 15.3651 15.2513 15.6356 14.6148 15.9079L13.6638 16.3165L13.6381 16.207C13.4647 15.4679 13.0159 15.0355 12.225 14.846C10.9558 14.5413 9.71233 14.2089 8.44598 13.866C8.13726 13.7822 7.84378 13.787 7.52457 13.8812C7.07387 14.0127 6.62984 14.1289 6.15913 14.2517C5.96665 14.3013 5.77322 14.3517 5.57884 14.4041L5.50452 14.4232L5.46926 14.3565C5.22437 13.9003 4.84609 13.7165 4.1991 13.7451C3.75316 13.7631 3.30056 13.7593 2.86129 13.7565C2.67834 13.7546 2.49158 13.7527 2.30577 13.7527C2.23431 13.7527 2.16285 13.7527 2.09233 13.7527C1.39008 13.7584 1.01656 14.107 1.01084 14.7613C0.996549 16.3784 0.996549 18.0785 1.00989 19.9566C1.01465 20.6204 1.38246 20.9776 2.07232 20.9909C2.7984 21.0042 3.53782 20.9985 4.25246 20.9937H4.46114C4.94995 20.989 5.27392 20.7909 5.42543 20.4023C5.51119 20.1794 5.66174 20.1004 5.85993 20.0499C5.96379 20.0232 6.06956 19.9994 6.17437 19.9756C6.38877 19.928 6.61173 19.8775 6.81755 19.8023C7.27588 19.6375 7.72372 19.6347 8.2697 19.7947C8.99006 20.0052 9.72853 20.2013 10.4422 20.3909C10.9482 20.5242 11.4713 20.6633 11.9849 20.8071C12.4213 20.929 12.7872 20.8747 13.1722 20.6318C15.1493 19.3813 17.1665 18.1194 19.117 16.8984L20.128 16.2641C20.5025 16.0308 20.7531 15.7546 20.8951 15.4222C21.1037 14.9355 20.991 14.4221 20.6471 14.0898L20.6788 14.1193ZM5.01094 19.9185C5.01189 20.128 4.96234 20.2794 4.85848 20.3785C4.75938 20.4728 4.6155 20.5194 4.41921 20.5194H4.40968C3.68646 20.5147 2.90893 20.5109 2.12092 20.5194C2.11616 20.5194 2.11139 20.5194 2.10567 20.5194C1.90367 20.5194 1.75598 20.4718 1.65402 20.3737C1.54635 20.2699 1.49489 20.1109 1.49775 19.8871C1.50537 19.289 1.50442 18.6813 1.50252 18.0937C1.50156 17.8508 1.50156 17.608 1.50156 17.3651V16.708C1.49966 16.1165 1.49966 15.5251 1.50156 14.9327C1.50442 14.3355 1.61781 14.2222 2.22097 14.2193C2.48491 14.2193 2.75076 14.2193 3.01565 14.2193C3.45873 14.2213 3.9161 14.2222 4.36585 14.2146C4.58882 14.2127 4.74795 14.2574 4.85371 14.3584C4.95948 14.4584 5.01094 14.6117 5.00998 14.8241C5.00236 16.5461 5.00236 18.2594 5.00998 19.9156L5.01094 19.9185ZM20.2795 15.5108C20.1452 15.6879 19.9632 15.8108 19.7869 15.9203L18.3081 16.847C16.5653 17.9385 14.7615 19.067 12.994 20.1833C12.7824 20.3175 12.5842 20.3823 12.3718 20.3823C12.2612 20.3823 12.1459 20.3652 12.023 20.3299C11.4894 20.1794 10.9425 20.0347 10.4146 19.8956C9.73711 19.7175 9.03676 19.5318 8.3526 19.3309C7.76374 19.1556 7.2492 19.1575 6.73846 19.3366C6.50311 19.4185 6.25918 19.4718 6 19.529C5.87804 19.5556 5.75321 19.5823 5.62172 19.6147L5.50261 19.6432V19.5251C5.50261 19.2185 5.50166 18.9185 5.5007 18.6204C5.49785 17.9042 5.49594 17.227 5.50737 16.5394C5.50928 16.3889 5.49022 16.2203 5.47116 16.0565C5.42447 15.6556 5.37588 15.2403 5.62934 14.9679C5.83897 14.7451 6.20391 14.6794 6.55742 14.6146C6.75371 14.5794 6.95667 14.5432 7.12723 14.4803C7.67703 14.2793 8.22397 14.2784 8.89859 14.4774C9.63229 14.6927 10.3898 14.8813 11.1216 15.0641C11.4684 15.1498 11.8162 15.2365 12.1612 15.326C12.5585 15.4279 12.8529 15.626 13.014 15.8984C13.1512 16.1308 13.1798 16.4032 13.0959 16.6861C12.9235 17.2708 12.3193 17.5394 11.5914 17.3546C10.9387 17.188 10.2859 17.0203 9.6342 16.8527C8.96624 16.6813 8.29829 16.5099 7.63129 16.3394C7.60366 16.3327 7.57412 16.3251 7.54553 16.3165C7.41023 16.2784 7.27111 16.2403 7.18726 16.287C7.14152 16.3118 7.10722 16.368 7.0853 16.4537C7.03194 16.6594 7.13962 16.7089 7.41785 16.7765L7.48455 16.7927C8.78806 17.1289 10.1745 17.4851 11.538 17.828C12.3851 18.0404 12.9844 17.8118 13.4275 17.108C13.5581 16.9013 13.7296 16.8051 13.8963 16.7346L15.095 16.2175C16.4976 15.6137 17.9469 14.9898 19.3695 14.366C19.6563 14.2403 20.0737 14.1184 20.3786 14.5174C20.7064 14.947 20.3843 15.3717 20.2786 15.5117L20.2795 15.5108Z" fill="#25272B" stroke="#25272B" stroke-width="0.7"/>
<path d="M18.1651 3.41718C18.1575 1.94002 17.1951 1.01619 15.6524 1.00762C14.7958 1.00286 13.9258 1.00381 13.0835 1.00571C12.7043 1.00571 12.3269 1.00857 11.9467 1.00571C11.5646 1.00571 11.1835 1.00571 10.8024 1.00286C10.426 1.00286 10.0458 1 9.66274 1C9.17392 1 8.68129 1.00286 8.19439 1.00952C6.78606 1.02952 5.82463 1.94668 5.80367 3.29242C5.78175 4.62482 5.78175 6.0677 5.80271 7.70297C5.81605 8.77917 6.40968 9.55347 7.47212 9.88395C7.81134 9.98872 7.83802 10.1801 7.83421 10.4002C7.82658 11.0144 7.82658 11.6326 7.83516 12.2373C7.83516 12.2811 7.8323 12.3278 7.82944 12.3735C7.8161 12.5716 7.81705 12.685 7.99047 12.745C8.14865 12.8002 8.24012 12.7164 8.37543 12.5754C8.4002 12.5497 8.42498 12.5249 8.44975 12.5011L8.84233 12.1249C9.48074 11.5154 10.1401 10.8849 10.7785 10.2554C10.9739 10.0621 11.1825 9.9811 11.4741 9.983C12.9206 9.99443 14.3517 9.99157 15.6819 9.98681C17.1808 9.98205 18.1556 9.04489 18.1641 7.5982C18.1727 6.32104 18.1727 4.9534 18.1641 3.41528L18.1651 3.41718ZM17.6696 7.6582C17.6572 8.78393 16.8844 9.51538 15.7019 9.52109C14.0344 9.52966 12.5651 9.52871 11.2092 9.51823C10.9539 9.52109 10.7785 9.5849 10.6061 9.75538C10.1239 10.2344 9.63129 10.7078 9.11008 11.2078C8.90712 11.403 8.6994 11.6021 8.48501 11.8097L8.32112 11.9668V11.744C8.32112 11.5373 8.32016 11.3402 8.31921 11.1506C8.3173 10.7325 8.31635 10.3354 8.32397 9.94776C8.33064 9.64871 8.23822 9.5449 7.92854 9.50204C6.9147 9.36013 6.30392 8.67822 6.29629 7.6763C6.28486 6.09532 6.28486 4.66768 6.29725 3.30956C6.30678 2.2105 7.05 1.4962 8.19153 1.48953C10.6175 1.4762 13.1588 1.4762 15.7429 1.48953C16.9006 1.4962 17.6563 2.22097 17.6686 3.33813C17.6848 4.78482 17.6848 6.23818 17.6686 7.65915L17.6696 7.6582Z" fill="#25272B" stroke="#25272B" stroke-width="0.7"/>
<path d="M12.4784 4.89249C12.3165 4.74106 12.1041 4.6582 11.8784 4.6582H11.8641C11.3917 4.66582 10.9983 5.0563 11.005 5.51155C11.0116 5.97346 11.3945 6.33156 11.8784 6.33156H11.8898C12.1279 6.32871 12.345 6.24109 12.5031 6.08585C12.6603 5.9306 12.7451 5.71822 12.7422 5.48679C12.7394 5.25917 12.646 5.04869 12.4784 4.89249ZM12.2527 5.49917C12.245 5.70774 12.1174 5.84013 11.9126 5.85441C11.8984 5.85632 11.886 5.85632 11.8726 5.85632C11.7679 5.85632 11.6774 5.82584 11.6117 5.76679C11.5412 5.70393 11.5031 5.61441 11.5012 5.50488C11.5002 5.39726 11.5393 5.30107 11.6107 5.23345C11.6821 5.16583 11.786 5.13154 11.9003 5.13631C12.1022 5.14488 12.2403 5.28488 12.2527 5.49155V5.50012V5.49917Z" fill="#A81417" stroke="#A81417" stroke-width="0.7"/>
<path d="M9.63421 4.89821C9.4723 4.74392 9.25705 4.6582 9.02751 4.6582H9.0237C8.55606 4.66011 8.14651 5.0525 8.14746 5.50107C8.14842 5.95918 8.54272 6.33156 9.02656 6.33156C9.14562 6.33156 9.25896 6.31061 9.36277 6.26966C9.46754 6.22966 9.56183 6.16966 9.64183 6.09251C9.8028 5.93918 9.89042 5.72774 9.89042 5.49822C9.88947 5.26964 9.76386 5.0238 9.59813 4.8657L9.63421 4.89821ZM9.29991 5.75536C9.23514 5.82108 9.14085 5.85441 9.0218 5.85632H9.01608C8.8075 5.85632 8.66178 5.72203 8.6494 5.52107C8.63797 5.3125 8.77893 5.16202 9.01608 5.12964L9.03037 5.12773L9.04561 5.12964C9.32467 5.17535 9.38849 5.34393 9.39325 5.47631C9.39706 5.59536 9.36563 5.6887 9.29991 5.75536Z" fill="#A81417" stroke="#A81417" stroke-width="0.7"/>
<path d="M15.4926 4.89821C15.3307 4.74392 15.1154 4.6582 14.8859 4.6582H14.8821C14.4145 4.66011 14.0049 5.0525 14.0059 5.50107C14.0068 5.95918 14.4011 6.33156 14.885 6.33156C15.004 6.33156 15.1174 6.31061 15.2212 6.26966C15.3259 6.22966 15.4202 6.16966 15.5002 6.09251C15.6612 5.93918 15.7488 5.72774 15.7488 5.49822C15.7479 5.26964 15.6223 5.0238 15.4565 4.8657L15.4926 4.89821ZM15.1583 5.75536C15.0935 5.82108 14.9993 5.85441 14.8802 5.85632H14.8745C14.6659 5.85632 14.5202 5.72203 14.5078 5.52107C14.4964 5.3125 14.6373 5.16202 14.8745 5.12964L14.8888 5.12773L14.904 5.12964C15.1831 5.17535 15.2469 5.34393 15.2516 5.47631C15.2555 5.59536 15.224 5.6887 15.1583 5.75536Z" fill="#A81417" stroke="#A81417" stroke-width="0.7"/>
</svg>
