<svg width="22" height="22" viewBox="0 0 22 22" fill="none" xmlns="http://www.w3.org/2000/svg">
<path d="M8.03906 7.5749L14.138 4.77539" stroke="#25272B" stroke-width="1.5" stroke-linecap="round" stroke-linejoin="round"/>
<path d="M8.03906 11.0742L12.6771 14.1292" stroke="#25272B" stroke-width="1.5" stroke-linecap="round" stroke-linejoin="round"/>
<path d="M16.5446 21.0009C19.0049 21.0009 20.9994 18.9964 20.9994 16.5239C20.9994 14.0513 19.0049 12.0469 16.5446 12.0469C14.0843 12.0469 12.0898 14.0513 12.0898 16.5239C12.0898 18.9964 14.0843 21.0009 16.5446 21.0009Z" stroke="#A81417" stroke-width="1.5" stroke-linecap="round" stroke-linejoin="round"/>
<path d="M4.72712 13.0006C6.78556 13.0006 8.45425 11.322 8.45425 9.2513C8.45425 7.18059 6.78556 5.50195 4.72712 5.50195C2.66869 5.50195 1 7.18059 1 9.2513C1 11.322 2.66869 13.0006 4.72712 13.0006Z" stroke="#25272B" stroke-width="1.5" stroke-linecap="round" stroke-linejoin="round"/>
<path d="M16.6263 6.41016C18.1265 6.41016 19.3425 5.19906 19.3425 3.70508C19.3425 2.21111 18.1265 1 16.6263 1C15.1262 1 13.9102 2.21111 13.9102 3.70508C13.9102 5.19906 15.1262 6.41016 16.6263 6.41016Z" stroke="#A81417" stroke-width="1.5" stroke-linecap="round" stroke-linejoin="round"/>
</svg>
