<svg xmlns="http://www.w3.org/2000/svg" width="167" height="49" viewBox="0 0 167 49" fill="none"><path d="M165.826 42.5567C165.826 45.1147 163.711 47.1867 161.094 47.1867H6.25576C3.64075 47.1867 1.51814 45.1147 1.51814 42.5567V5.63408C1.51814 3.07731 3.64075 0.998047 6.25576 0.998047H161.093C163.711 0.998047 165.825 3.07731 165.825 5.63408L165.826 42.5567Z" fill="black"></path><path d="M160.595 1.0533C163.444 1.0533 165.763 3.3138 165.763 6.0918V42.0918C165.763 44.8698 163.444 47.1303 160.595 47.1303H6.74885C3.89962 47.1303 1.58116 44.8698 1.58116 42.0918V6.0918C1.58116 3.3138 3.89962 1.0533 6.74885 1.0533H160.595ZM160.595 0.0917994H6.74885C3.36578 0.0917994 0.595009 2.7933 0.595009 6.0918V42.0918C0.595009 45.3903 3.36578 48.0918 6.74885 48.0918H160.595C163.978 48.0918 166.749 45.3903 166.749 42.0918V6.0918C166.749 2.7933 163.978 0.0917994 160.595 0.0917994Z" fill="#A6A6A6"></path><path d="M37.6756 23.8331C37.6399 19.9655 40.9236 18.0839 41.0738 17.9963C39.2141 15.3527 36.3316 14.9915 35.3187 14.9627C32.8978 14.7143 30.5495 16.3751 29.3163 16.3751C28.0584 16.3751 26.1593 14.9867 24.1126 15.0275C21.4787 15.0671 19.0147 16.5539 17.6633 18.8627C14.8744 23.5703 16.9544 30.4883 19.6264 34.2935C20.963 36.1571 22.5249 38.2379 24.5692 38.1647C26.5692 38.0843 27.3163 36.9215 29.7298 36.9215C32.1212 36.9215 32.8227 38.1647 34.9076 38.1179C37.0541 38.0843 38.4055 36.2459 39.6953 34.3655C41.2399 32.2295 41.8603 30.1259 41.8849 30.0179C41.8344 30.0011 37.7163 28.4687 37.6756 23.8331Z" fill="white"></path><path d="M33.7372 12.4595C34.8129 11.1479 35.5489 9.36353 35.3446 7.55273C33.7876 7.61993 31.8406 8.60273 30.7193 9.88553C29.7273 11.0159 28.8412 12.8687 29.0701 14.6111C30.819 14.7383 32.6147 13.7507 33.7372 12.4595Z" fill="white"></path><path d="M66.6196 37.8973H63.8245L62.2934 33.2065H56.9716L55.5131 37.8973H52.7919L58.0645 21.9277H61.3211L66.6196 37.8973ZM61.8319 31.2385L60.4473 27.0685C60.3008 26.6425 60.0263 25.6393 59.6214 24.0601H59.5722C59.4109 24.7393 59.1512 25.7425 58.7943 27.0685L57.4343 31.2385H61.8319Z" fill="white"></path><path d="M80.179 31.9969C80.179 33.9553 79.6362 35.5033 78.5507 36.6397C77.5784 37.6513 76.371 38.1565 74.9298 38.1565C73.3741 38.1565 72.2565 37.6117 71.5759 36.5221H71.5267V42.5881H68.9027V30.1717C68.9027 28.9405 68.8695 27.6769 68.8055 26.3809H71.1131L71.2596 28.2061H71.3088C72.1839 26.8309 73.5119 26.1445 75.2941 26.1445C76.6873 26.1445 77.8504 26.6809 78.7808 27.7549C79.7138 28.8301 80.179 30.2437 80.179 31.9969ZM77.5058 32.0905C77.5058 30.9697 77.2473 30.0457 76.7279 29.3185C76.1605 28.5601 75.3987 28.1809 74.4436 28.1809C73.7962 28.1809 73.2079 28.3921 72.6824 28.8085C72.1556 29.2285 71.811 29.7769 71.6498 30.4561C71.5685 30.7729 71.5279 31.0321 71.5279 31.2361V33.1561C71.5279 33.9937 71.7913 34.7005 72.3181 35.2777C72.8448 35.8549 73.5291 36.1429 74.371 36.1429C75.3593 36.1429 76.1285 35.7709 76.6787 35.0293C77.2301 34.2865 77.5058 33.3073 77.5058 32.0905Z" fill="white"></path><path d="M93.763 31.9969C93.763 33.9553 93.2202 35.5033 92.1335 36.6397C91.1624 37.6513 89.955 38.1565 88.5138 38.1565C86.9581 38.1565 85.8405 37.6117 85.1611 36.5221H85.1119V42.5881H82.4879V30.1717C82.4879 28.9405 82.4547 27.6769 82.3907 26.3809H84.6984L84.8448 28.2061H84.8941C85.7679 26.8309 87.0959 26.1445 88.8793 26.1445C90.2713 26.1445 91.4344 26.6809 92.3673 27.7549C93.2965 28.8301 93.763 30.2437 93.763 31.9969ZM91.0898 32.0905C91.0898 30.9697 90.8301 30.0457 90.3107 29.3185C89.7433 28.5601 88.9839 28.1809 88.0276 28.1809C87.379 28.1809 86.7919 28.3921 86.2651 28.8085C85.7384 29.2285 85.395 29.7769 85.2338 30.4561C85.1538 30.7729 85.1119 31.0321 85.1119 31.2361V33.1561C85.1119 33.9937 85.3753 34.7005 85.8996 35.2777C86.4264 35.8537 87.1107 36.1429 87.955 36.1429C88.9433 36.1429 89.7125 35.7709 90.2627 35.0293C90.8141 34.2865 91.0898 33.3073 91.0898 32.0905Z" fill="white"></path><path d="M108.951 33.4186C108.951 34.777 108.467 35.8822 107.496 36.7354C106.429 37.6678 104.943 38.1334 103.034 38.1334C101.272 38.1334 99.859 37.8022 98.7894 37.1386L99.3974 35.0062C100.549 35.6854 101.813 36.0262 103.191 36.0262C104.179 36.0262 104.948 35.8078 105.501 35.3734C106.051 34.939 106.325 34.3558 106.325 33.6286C106.325 32.9806 106.099 32.4346 105.645 31.9918C105.193 31.549 104.439 31.1374 103.385 30.757C100.517 29.7142 99.0848 28.1866 99.0848 26.1778C99.0848 24.865 99.587 23.7886 100.593 22.951C101.594 22.1122 102.931 21.6934 104.602 21.6934C106.093 21.6934 107.331 21.9466 108.319 22.4518L107.663 24.5374C106.74 24.0478 105.697 23.803 104.529 23.803C103.605 23.803 102.884 24.025 102.367 24.4666C101.93 24.8614 101.711 25.3426 101.711 25.9126C101.711 26.5438 101.961 27.0658 102.463 27.4762C102.9 27.8554 103.694 28.2658 104.846 28.7086C106.255 29.2618 107.29 29.9086 107.956 30.6502C108.62 31.3894 108.951 32.3146 108.951 33.4186Z" fill="white"></path><path d="M117.626 28.3009H114.734V33.8917C114.734 35.3137 115.244 36.0241 116.265 36.0241C116.734 36.0241 117.123 35.9845 117.431 35.9053L117.503 37.8481C116.986 38.0365 116.306 38.1313 115.463 38.1313C114.426 38.1313 113.617 37.8229 113.032 37.2073C112.45 36.5905 112.157 35.5561 112.157 34.1029V28.2985H110.434V26.3785H112.157V24.2701L114.734 23.5117V26.3785H117.626V28.3009Z" fill="white"></path><path d="M130.676 32.0445C130.676 33.8145 130.157 35.2677 129.12 36.4041C128.034 37.5741 126.591 38.1573 124.793 38.1573C123.06 38.1573 121.68 37.5969 120.652 36.4761C119.623 35.3553 119.108 33.9405 119.108 32.2353C119.108 30.4509 119.637 28.9893 120.7 27.8529C121.759 26.7153 123.189 26.1465 124.988 26.1465C126.72 26.1465 128.115 26.7069 129.167 27.8289C130.174 28.9173 130.676 30.3225 130.676 32.0445ZM127.954 32.1273C127.954 31.0653 127.721 30.1545 127.25 29.3949C126.7 28.4757 125.913 28.0173 124.894 28.0173C123.839 28.0173 123.038 28.4769 122.488 29.3949C122.017 30.1557 121.784 31.0809 121.784 32.1753C121.784 33.2373 122.017 34.1481 122.488 34.9065C123.055 35.8257 123.848 36.2841 124.871 36.2841C125.872 36.2841 126.659 35.8161 127.226 34.8825C127.71 34.1085 127.954 33.1881 127.954 32.1273Z" fill="white"></path><path d="M139.205 28.6309C138.946 28.5841 138.669 28.5601 138.378 28.5601C137.455 28.5601 136.741 28.8997 136.239 29.5801C135.802 30.1801 135.583 30.9385 135.583 31.8541V37.8961H132.961L132.985 30.0073C132.985 28.6801 132.952 27.4717 132.887 26.3821H135.172L135.268 28.5853H135.341C135.618 27.8281 136.055 27.2185 136.653 26.7613C137.237 26.3497 137.869 26.1445 138.549 26.1445C138.792 26.1445 139.011 26.1613 139.205 26.1913V28.6309Z" fill="white"></path><path d="M150.941 31.5938C150.941 32.0522 150.91 32.4386 150.845 32.7542H142.973C143.004 33.8918 143.384 34.7618 144.115 35.3618C144.778 35.8982 145.636 36.167 146.69 36.167C147.855 36.167 148.919 35.9858 149.875 35.6222L150.286 37.3982C149.168 37.8734 147.849 38.1098 146.327 38.1098C144.495 38.1098 143.058 37.5842 142.012 36.5342C140.968 35.4842 140.445 34.0742 140.445 32.3054C140.445 30.569 140.931 29.123 141.905 27.9698C142.924 26.7386 144.301 26.123 146.034 26.123C147.736 26.123 149.024 26.7386 149.9 27.9698C150.592 28.9478 150.941 30.1574 150.941 31.5938ZM148.439 30.9302C148.456 30.1718 148.285 29.5166 147.929 28.9634C147.475 28.2518 146.777 27.8966 145.838 27.8966C144.98 27.8966 144.282 28.2434 143.749 28.9394C143.313 29.4926 143.053 30.1562 142.973 30.929H148.439V30.9302Z" fill="white"></path><path d="M60.9643 12.1022C60.9643 13.5146 60.5298 14.5778 59.6621 15.2918C58.8584 15.9506 57.7163 16.2806 56.2369 16.2806C55.5034 16.2806 54.8757 16.2494 54.3501 16.187V8.46984C55.0357 8.36184 55.7741 8.30664 56.5717 8.30664C57.9809 8.30664 59.043 8.60544 59.7594 9.20304C60.5618 9.87864 60.9643 10.8446 60.9643 12.1022ZM59.6043 12.137C59.6043 11.2214 59.3557 10.5194 58.8584 10.0298C58.3612 9.54144 57.635 9.29664 56.6787 9.29664C56.2726 9.29664 55.9267 9.32304 55.64 9.37824V15.245C55.7987 15.269 56.0892 15.2798 56.5114 15.2798C57.4984 15.2798 58.2603 15.0122 58.7969 14.477C59.3335 13.9418 59.6043 13.1618 59.6043 12.137Z" fill="white"></path><path d="M68.1754 13.3363C68.1754 14.2063 67.9206 14.9191 67.4111 15.4783C66.8769 16.0531 66.1692 16.3399 65.2855 16.3399C64.4338 16.3399 63.7557 16.0651 63.2498 15.5131C62.7452 14.9623 62.4929 14.2675 62.4929 13.4299C62.4929 12.5539 62.7526 11.8351 63.2744 11.2771C63.7963 10.7191 64.4978 10.4395 65.3815 10.4395C66.2332 10.4395 66.9175 10.7143 67.4357 11.2651C67.928 11.8003 68.1754 12.4915 68.1754 13.3363ZM66.8375 13.3771C66.8375 12.8551 66.7218 12.4075 66.4917 12.0343C66.2209 11.5831 65.8357 11.3575 65.3348 11.3575C64.8166 11.3575 64.4228 11.5831 64.152 12.0343C63.9206 12.4075 63.8061 12.8623 63.8061 13.3999C63.8061 13.9219 63.9218 14.3695 64.152 14.7427C64.4314 15.1939 64.8203 15.4195 65.3224 15.4195C65.8148 15.4195 66.2012 15.1903 66.4794 14.7307C66.7181 14.3503 66.8375 13.8991 66.8375 13.3771Z" fill="white"></path><path d="M77.8442 10.5547L76.0289 16.2115H74.8473L74.0953 13.7551C73.9045 13.1419 73.7495 12.5323 73.6289 11.9275H73.6055C73.4935 12.5491 73.3384 13.1575 73.139 13.7551L72.3402 16.2115H71.1452L69.4381 10.5547H70.7636L71.4196 13.2439C71.5784 13.8799 71.7089 14.4859 71.8135 15.0595H71.8369C71.9329 14.5867 72.0916 13.9843 72.3156 13.2559L73.139 10.5559H74.1901L74.979 13.1983C75.1698 13.8427 75.3249 14.4631 75.4442 15.0607H75.4799C75.5673 14.4787 75.699 13.8583 75.8738 13.1983L76.5778 10.5559H77.8442V10.5547Z" fill="white"></path><path d="M84.531 16.2111H83.2412V12.9711C83.2412 11.9727 82.8523 11.4735 82.0719 11.4735C81.6892 11.4735 81.3803 11.6103 81.1403 11.8851C80.9027 12.1599 80.7821 12.4839 80.7821 12.8547V16.2099H79.4923V12.1707C79.4923 11.6739 79.4763 11.1351 79.4455 10.5519H80.579L80.6393 11.4363H80.675C80.8252 11.1615 81.0492 10.9347 81.3433 10.7535C81.6929 10.5423 82.0843 10.4355 82.5126 10.4355C83.0541 10.4355 83.5046 10.6059 83.8627 10.9479C84.3082 11.3667 84.531 11.9919 84.531 12.8223V16.2111Z" fill="white"></path><path d="M88.088 16.2114H86.7994V7.95898H88.088V16.2114Z" fill="white"></path><path d="M95.6818 13.3363C95.6818 14.2063 95.427 14.9191 94.9175 15.4783C94.3833 16.0531 93.6744 16.3399 92.7919 16.3399C91.939 16.3399 91.2609 16.0651 90.7562 15.5131C90.2516 14.9623 89.9993 14.2675 89.9993 13.4299C89.9993 12.5539 90.259 11.8351 90.7809 11.2771C91.3027 10.7191 92.0042 10.4395 92.8867 10.4395C93.7396 10.4395 94.4227 10.7143 94.9421 11.2651C95.4344 11.8003 95.6818 12.4915 95.6818 13.3363ZM94.3427 13.3771C94.3427 12.8551 94.227 12.4075 93.9969 12.0343C93.7273 11.5831 93.3409 11.3575 92.8412 11.3575C92.3218 11.3575 91.9279 11.5831 91.6584 12.0343C91.427 12.4075 91.3126 12.8623 91.3126 13.3999C91.3126 13.9219 91.4282 14.3695 91.6584 14.7427C91.9378 15.1939 92.3267 15.4195 92.8289 15.4195C93.3212 15.4195 93.7064 15.1903 93.9846 14.7307C94.2246 14.3503 94.3427 13.8991 94.3427 13.3771Z" fill="white"></path><path d="M101.924 16.2115H100.766L100.67 15.5599H100.634C100.238 16.0795 99.6732 16.3399 98.9397 16.3399C98.392 16.3399 97.9489 16.1683 97.6154 15.8275C97.3126 15.5179 97.1612 15.1327 97.1612 14.6755C97.1612 13.9843 97.4566 13.4575 98.051 13.0927C98.6443 12.7279 99.4787 12.5491 100.553 12.5575V12.4519C100.553 11.7067 100.152 11.3347 99.3483 11.3347C98.776 11.3347 98.2714 11.4751 97.8357 11.7535L97.5735 10.9279C98.1126 10.6027 98.7784 10.4395 99.5637 10.4395C101.08 10.4395 101.841 11.2195 101.841 12.7795V14.8627C101.841 15.4279 101.869 15.8779 101.924 16.2115ZM100.585 14.2675V13.3951C99.1624 13.3711 98.451 13.7515 98.451 14.5351C98.451 14.8303 98.5323 15.0511 98.6984 15.1987C98.8646 15.3463 99.0763 15.4195 99.3286 15.4195C99.6117 15.4195 99.8763 15.3319 100.117 15.1579C100.36 14.9827 100.509 14.7607 100.564 14.4883C100.578 14.4271 100.585 14.3527 100.585 14.2675Z" fill="white"></path><path d="M109.253 16.2114H108.109L108.049 15.303H108.013C107.647 15.9942 107.025 16.3398 106.149 16.3398C105.45 16.3398 104.868 16.0722 104.407 15.537C103.945 15.0018 103.715 14.307 103.715 13.4538C103.715 12.5382 103.965 11.7966 104.467 11.2302C104.953 10.7022 105.549 10.4382 106.258 10.4382C107.037 10.4382 107.582 10.6938 107.892 11.2062H107.917V7.95898H109.208V14.6874C109.208 15.2382 109.223 15.7458 109.253 16.2114ZM107.917 13.8258V12.8826C107.917 12.7194 107.905 12.5874 107.881 12.4866C107.809 12.1842 107.652 11.9298 107.415 11.7246C107.175 11.5194 106.885 11.4162 106.552 11.4162C106.071 11.4162 105.694 11.6022 105.417 11.9754C105.143 12.3486 105.004 12.825 105.004 13.407C105.004 13.9662 105.135 14.4198 105.4 14.769C105.679 15.141 106.056 15.327 106.527 15.327C106.951 15.327 107.289 15.1722 107.546 14.8614C107.795 14.5746 107.917 14.229 107.917 13.8258Z" fill="white"></path><path d="M120.285 13.3363C120.285 14.2063 120.03 14.9191 119.521 15.4783C118.986 16.0531 118.28 16.3399 117.395 16.3399C116.545 16.3399 115.866 16.0651 115.359 15.5131C114.855 14.9623 114.602 14.2675 114.602 13.4299C114.602 12.5539 114.862 11.8351 115.384 11.2771C115.906 10.7191 116.607 10.4395 117.492 10.4395C118.343 10.4395 119.028 10.7143 119.545 11.2651C120.037 11.8003 120.285 12.4915 120.285 13.3363ZM118.948 13.3771C118.948 12.8551 118.833 12.4075 118.602 12.0343C118.33 11.5831 117.946 11.3575 117.444 11.3575C116.927 11.3575 116.533 11.5831 116.261 12.0343C116.03 12.4075 115.916 12.8623 115.916 13.3999C115.916 13.9219 116.031 14.3695 116.261 14.7427C116.541 15.1939 116.93 15.4195 117.432 15.4195C117.924 15.4195 118.312 15.1903 118.59 14.7307C118.828 14.3503 118.948 13.8991 118.948 13.3771Z" fill="white"></path><path d="M127.22 16.2111H125.932V12.9711C125.932 11.9727 125.543 11.4735 124.761 11.4735C124.378 11.4735 124.07 11.6103 123.831 11.8851C123.592 12.1599 123.473 12.4839 123.473 12.8547V16.2099H122.182V12.1707C122.182 11.6739 122.167 11.1351 122.136 10.5519H123.268L123.329 11.4363H123.364C123.516 11.1615 123.74 10.9347 124.033 10.7535C124.383 10.5423 124.774 10.4355 125.203 10.4355C125.743 10.4355 126.194 10.6059 126.552 10.9479C126.999 11.3667 127.22 11.9919 127.22 12.8223V16.2111Z" fill="white"></path><path d="M135.901 11.4973H134.481V14.2453C134.481 14.9437 134.733 15.2929 135.233 15.2929C135.464 15.2929 135.656 15.2737 135.807 15.2341L135.841 16.1881C135.586 16.2817 135.251 16.3285 134.839 16.3285C134.329 16.3285 133.933 16.1773 133.646 15.8749C133.358 15.5725 133.215 15.0637 133.215 14.3497V11.4973H132.367V10.5553H133.215V9.51848L134.479 9.14648V10.5541H135.9V11.4973H135.901Z" fill="white"></path><path d="M142.729 16.2114H141.438V12.9954C141.438 11.9814 141.049 11.4738 140.27 11.4738C139.672 11.4738 139.263 11.7678 139.039 12.3558C139.001 12.4794 138.979 12.6306 138.979 12.8082V16.2102H137.69V7.95898H138.979V11.3682H139.004C139.41 10.7478 139.992 10.4382 140.746 10.4382C141.281 10.4382 141.722 10.6086 142.073 10.9506C142.51 11.3766 142.729 12.0102 142.729 12.8478V16.2114Z" fill="white"></path><path d="M149.773 13.1145C149.773 13.3401 149.756 13.5297 149.725 13.6845H145.857C145.874 14.2437 146.058 14.6697 146.417 14.9649C146.744 15.2289 147.166 15.3609 147.683 15.3609C148.255 15.3609 148.777 15.2721 149.247 15.0933L149.449 15.9669C148.899 16.1997 148.252 16.3161 147.502 16.3161C146.604 16.3161 145.896 16.0581 145.384 15.5421C144.869 15.0261 144.615 14.3337 144.615 13.4649C144.615 12.6117 144.852 11.9013 145.331 11.3349C145.831 10.7301 146.506 10.4277 147.359 10.4277C148.194 10.4277 148.828 10.7301 149.256 11.3349C149.602 11.8149 149.773 12.4089 149.773 13.1145ZM148.542 12.7893C148.552 12.4161 148.467 12.0945 148.292 11.8233C148.068 11.4741 147.727 11.2989 147.266 11.2989C146.845 11.2989 146.501 11.4693 146.239 11.8113C146.025 12.0837 145.898 12.4089 145.857 12.7893H148.542Z" fill="white"></path></svg>