<svg xmlns="http://www.w3.org/2000/svg" width="167" height="49" viewBox="0 0 167 49" fill="none"><path d="M160.45 48.0918H6.81496C3.43653 48.0918 0.669571 45.3903 0.669571 42.0918V6.0918C0.669571 2.79331 3.43653 0.0918041 6.81496 0.0918041H160.45C163.828 0.0918041 166.595 2.79331 166.595 6.0918V42.0918C166.595 45.3903 163.828 48.0918 160.45 48.0918Z" fill="black"></path><path d="M160.45 1.0533C163.295 1.0533 165.61 3.3138 165.61 6.0918V42.0918C165.61 44.8698 163.295 47.1303 160.45 47.1303H6.81496C3.96964 47.1303 1.65437 44.8698 1.65437 42.0918V6.0918C1.65437 3.3138 3.96964 1.0533 6.81496 1.0533H160.45ZM160.45 0.0918041H6.81496C3.43653 0.0918041 0.669571 2.79331 0.669571 6.0918V42.0918C0.669571 45.3903 3.43653 48.0918 6.81496 48.0918H160.45C163.828 48.0918 166.595 45.3903 166.595 42.0918V6.0918C166.595 2.79331 163.828 0.0918041 160.45 0.0918041Z" fill="#A6A6A6"></path><path d="M58.9494 12.3846C58.9494 13.3866 58.6421 14.1891 58.0368 14.7876C57.3408 15.4971 56.4344 15.8541 55.3236 15.8541C54.262 15.8541 53.3555 15.4911 52.6119 14.7756C51.8668 14.0496 51.495 13.1586 51.495 12.0921C51.495 11.0256 51.8668 10.1346 52.6119 9.41458C53.3555 8.69308 54.262 8.33008 55.3236 8.33008C55.8521 8.33008 56.356 8.43658 56.8369 8.63458C57.3162 8.83408 57.7065 9.10408 57.9891 9.43708L57.347 10.0701C56.8538 9.50158 56.1824 9.22108 55.3236 9.22108C54.5493 9.22108 53.8779 9.48508 53.3079 10.0176C52.7441 10.5516 52.4614 11.2431 52.4614 12.0921C52.4614 12.9411 52.7441 13.6386 53.3079 14.1726C53.8779 14.6991 54.5493 14.9691 55.3236 14.9691C56.1455 14.9691 56.8369 14.6991 57.3823 14.1666C57.7418 13.8141 57.9461 13.3281 57.9999 12.7071H55.3236V11.8401H58.8941C58.9371 12.0276 58.9494 12.2091 58.9494 12.3846Z" fill="white" stroke="white" stroke-width="0.130169" stroke-miterlimit="10"></path><path d="M64.6139 9.37764H61.26V11.6576H64.2835V12.5246H61.26V14.8046H64.6139V15.6881H60.3105V8.49414H64.6139V9.37764Z" fill="white" stroke="white" stroke-width="0.130169" stroke-miterlimit="10"></path><path d="M68.6114 15.6881H67.662V9.37764H65.6048V8.49414H70.6701V9.37764H68.6114V15.6881Z" fill="white" stroke="white" stroke-width="0.130169" stroke-miterlimit="10"></path><path d="M74.3359 15.6881V8.49414H75.2838V15.6881H74.3359Z" fill="white" stroke="white" stroke-width="0.130169" stroke-miterlimit="10"></path><path d="M79.4857 15.6881H78.5439V9.37764H76.479V8.49414H81.5505V9.37764H79.4857V15.6881Z" fill="white" stroke="white" stroke-width="0.130169" stroke-miterlimit="10"></path><path d="M91.1404 14.7636C90.4138 15.4911 89.5134 15.8541 88.4395 15.8541C87.3595 15.8541 86.4592 15.4911 85.7325 14.7636C85.0073 14.0376 84.6463 13.1466 84.6463 12.0921C84.6463 11.0376 85.0073 10.1466 85.7325 9.42058C86.4592 8.69308 87.3595 8.33008 88.4395 8.33008C89.5073 8.33008 90.4076 8.69308 91.1343 9.42658C91.8656 10.1586 92.2266 11.0436 92.2266 12.0921C92.2266 13.1466 91.8656 14.0376 91.1404 14.7636ZM86.4346 14.1606C86.9816 14.6991 87.6468 14.9691 88.4395 14.9691C89.2261 14.9691 89.8975 14.6991 90.4383 14.1606C90.9837 13.6221 91.2603 12.9306 91.2603 12.0921C91.2603 11.2536 90.9837 10.5621 90.4383 10.0236C89.8975 9.48508 89.2261 9.21508 88.4395 9.21508C87.6468 9.21508 86.9816 9.48508 86.4346 10.0236C85.8892 10.5621 85.6127 11.2536 85.6127 12.0921C85.6127 12.9306 85.8892 13.6221 86.4346 14.1606Z" fill="white" stroke="white" stroke-width="0.130169" stroke-miterlimit="10"></path><path d="M93.5586 15.6881V8.49414H94.7109L98.2936 14.0891H98.3351L98.2936 12.7061V8.49414H99.2416V15.6881H98.2521L94.5004 9.81714H94.4589L94.5004 11.2061V15.6881H93.5586Z" fill="white" stroke="white" stroke-width="0.130169" stroke-miterlimit="10"></path><path d="M84.4127 26.1944C81.5259 26.1944 79.1677 28.3394 79.1677 31.2989C79.1677 34.2344 81.5259 36.4019 84.4127 36.4019C87.3057 36.4019 89.664 34.2344 89.664 31.2989C89.664 28.3394 87.3057 26.1944 84.4127 26.1944ZM84.4127 34.3919C82.8288 34.3919 81.466 33.1154 81.466 31.2989C81.466 29.4584 82.8288 28.2044 84.4127 28.2044C85.9967 28.2044 87.3656 29.4584 87.3656 31.2989C87.3656 33.1154 85.9967 34.3919 84.4127 34.3919ZM72.9685 26.1944C70.0756 26.1944 67.7234 28.3394 67.7234 31.2989C67.7234 34.2344 70.0756 36.4019 72.9685 36.4019C75.8599 36.4019 78.2136 34.2344 78.2136 31.2989C78.2136 28.3394 75.8599 26.1944 72.9685 26.1944ZM72.9685 34.3919C71.383 34.3919 70.0156 33.1154 70.0156 31.2989C70.0156 29.4584 71.383 28.2044 72.9685 28.2044C74.5525 28.2044 75.9152 29.4584 75.9152 31.2989C75.9152 33.1154 74.5525 34.3919 72.9685 34.3919ZM59.3503 27.7589V29.9279H64.6553C64.5002 31.1399 64.0853 32.0309 63.4493 32.6519C62.675 33.4019 61.4689 34.2344 59.3503 34.2344C56.0856 34.2344 53.5291 31.6619 53.5291 28.4744C53.5291 25.2869 56.0856 22.7144 59.3503 22.7144C61.1156 22.7144 62.4 23.3879 63.3479 24.2609L64.9134 22.7324C63.5876 21.4964 61.8238 20.5469 59.3503 20.5469C54.8734 20.5469 51.1109 24.1034 51.1109 28.4744C51.1109 32.8454 54.8734 36.4019 59.3503 36.4019C61.7701 36.4019 63.5876 35.6279 65.0164 34.1759C66.4805 32.7464 66.9368 30.7364 66.9368 29.1134C66.9368 28.6094 66.8938 28.1459 66.817 27.7589H59.3503ZM115.037 29.4404C114.605 28.2989 113.273 26.1944 110.56 26.1944C107.871 26.1944 105.633 28.2629 105.633 31.2989C105.633 34.1579 107.848 36.4019 110.818 36.4019C113.219 36.4019 114.605 34.9724 115.175 34.1399L113.393 32.9804C112.798 33.8294 111.989 34.3919 110.818 34.3919C109.655 34.3919 108.821 33.8714 108.286 32.8454L115.278 30.0209L115.037 29.4404ZM107.908 31.1399C107.848 29.1719 109.474 28.1639 110.638 28.1639C111.551 28.1639 112.325 28.6094 112.583 29.2469L107.908 31.1399ZM102.225 36.0914H104.524V21.0914H102.225V36.0914ZM98.4611 27.3314H98.3843C97.8681 26.7344 96.8833 26.1944 95.6358 26.1944C93.0178 26.1944 90.6242 28.4384 90.6242 31.3154C90.6242 34.1759 93.0178 36.4019 95.6358 36.4019C96.8833 36.4019 97.8681 35.8574 98.3843 35.2424H98.4611V35.9744C98.4611 37.9259 97.3933 38.9744 95.6711 38.9744C94.2669 38.9744 93.3958 37.9844 93.0363 37.1519L91.0375 37.9664C91.6136 39.3194 93.1392 40.9844 95.6711 40.9844C98.3658 40.9844 100.64 39.4364 100.64 35.6699V26.5049H98.4611V27.3314ZM95.8324 34.3919C94.2484 34.3919 92.9226 33.0974 92.9226 31.3154C92.9226 29.5169 94.2484 28.2044 95.8324 28.2044C97.3933 28.2044 98.6239 29.5169 98.6239 31.3154C98.6239 33.0974 97.3933 34.3919 95.8324 34.3919ZM125.797 21.0914H120.3V36.0914H122.592V30.4079H125.797C128.343 30.4079 130.84 28.6094 130.84 25.7489C130.84 22.8899 128.337 21.0914 125.797 21.0914ZM125.857 28.3214H122.592V23.1779H125.857C127.569 23.1779 128.546 24.5654 128.546 25.7489C128.546 26.9099 127.569 28.3214 125.857 28.3214ZM140.027 26.1659C138.371 26.1659 136.649 26.8799 135.94 28.4624L137.974 29.2949C138.412 28.4624 139.217 28.1924 140.068 28.1924C141.258 28.1924 142.464 28.8899 142.482 30.1214V30.2789C142.067 30.0449 141.179 29.6984 140.087 29.6984C137.896 29.6984 135.664 30.8759 135.664 33.0734C135.664 35.0834 137.458 36.3779 139.475 36.3779C141.018 36.3779 141.869 35.6984 142.404 34.9079H142.482V36.0674H144.696V30.3134C144.696 27.6539 142.662 26.1659 140.027 26.1659ZM139.75 34.3859C139.001 34.3859 137.956 34.0229 137.956 33.1154C137.956 31.9544 139.259 31.5089 140.386 31.5089C141.396 31.5089 141.869 31.7264 142.482 32.0129C142.302 33.4019 141.078 34.3859 139.75 34.3859ZM152.762 26.4944L150.127 32.9969H150.049L147.325 26.4944H144.853L148.945 35.5814L146.61 40.6379H149.005L155.312 26.4944H152.762ZM132.099 36.0914H134.398V21.0914H132.099V36.0914Z" fill="white"></path><path d="M13.495 9.13881C13.134 9.50781 12.925 10.0823 12.925 10.8263V37.3643C12.925 38.1083 13.134 38.6828 13.495 39.0518L13.5841 39.1328L28.8155 24.2678V23.9168L13.5841 9.05181L13.495 9.13881Z" fill="url(#paint0_linear_335_19225)"></path><path d="M33.8869 29.2246L28.8154 24.2671V23.9161L33.8931 18.9586L34.0068 19.0231L40.02 22.3636C41.7361 23.3116 41.7361 24.8716 40.02 25.8256L34.0068 29.1601L33.8869 29.2246Z" fill="#FFC20E"></path><path d="M34.0068 29.1608L28.8154 24.0923L13.495 39.0518C14.065 39.6368 14.9945 39.7073 16.0515 39.1223L34.0068 29.1608Z" fill="url(#paint1_linear_335_19225)"></path><path d="M34.0068 19.0233L16.0515 9.0618C14.9945 8.4828 14.065 8.5533 13.495 9.1383L28.8154 24.0918L34.0068 19.0233Z" fill="url(#paint2_linear_335_19225)"></path><defs><linearGradient id="paint0_linear_335_19225" x1="27.4631" y1="37.6407" x2="7.33" y2="17.0197" gradientUnits="userSpaceOnUse"><stop stop-color="#00A0FF"></stop><stop offset="0.0066" stop-color="#00A1FF"></stop><stop offset="0.2601" stop-color="#00BEFF"></stop><stop offset="0.5122" stop-color="#00D2FF"></stop><stop offset="0.7604" stop-color="#00DFFF"></stop><stop offset="1" stop-color="#00E3FF"></stop></linearGradient><linearGradient id="paint1_linear_335_19225" x1="31.1839" y1="21.3369" x2="3.88175" y2="-6.62676" gradientUnits="userSpaceOnUse"><stop stop-color="#FF3A44"></stop><stop offset="1" stop-color="#C31162"></stop></linearGradient><linearGradient id="paint2_linear_335_19225" x1="9.63852" y1="47.8804" x2="21.8301" y2="35.3934" gradientUnits="userSpaceOnUse"><stop stop-color="#32A071"></stop><stop offset="0.0685" stop-color="#2DA771"></stop><stop offset="0.4762" stop-color="#15CF74"></stop><stop offset="0.8009" stop-color="#06E775"></stop><stop offset="1" stop-color="#00F076"></stop></linearGradient></defs></svg>