<svg xmlns="http://www.w3.org/2000/svg" width="157" height="49" viewBox="0 0 157 49" fill="none"><rect x="0.748871" y="0.0917969" width="156" height="48" rx="5" fill="#A81417"></rect><path d="M44.0819 11.4258H17.4152V31.4258H44.0819V11.4258Z" stroke="white" stroke-width="2" stroke-linejoin="round"></path><path d="M28.7486 27.4258H32.7486" stroke="white" stroke-width="2" stroke-linejoin="round"></path><path d="M33.4152 36.7591V31.4258M28.0819 36.7591V31.4258" stroke="white" stroke-width="2"></path><path d="M24.0819 36.7598H37.4152" stroke="white" stroke-width="2"></path><path d="M64.7249 16.0278H62.5009L62.1329 17.0918H60.9569L62.9649 11.4998H64.2689L66.2769 17.0918H65.0929L64.7249 16.0278ZM64.4209 15.1318L63.6129 12.7958L62.8049 15.1318H64.4209ZM71.8834 11.5078L69.8354 17.0918H68.4754L66.4274 11.5078H67.6274L69.1634 15.9478L70.6914 11.5078H71.8834ZM75.8189 16.0278H73.5949L73.2269 17.0918H72.0509L74.0589 11.4998H75.3629L77.3709 17.0918H76.1869L75.8189 16.0278ZM75.5149 15.1318L74.7069 12.7958L73.8989 15.1318H75.5149ZM79.0815 11.5078V17.0918H77.9615V11.5078H79.0815ZM81.1481 16.2038H82.9881V17.0918H80.0281V11.5078H81.1481V16.2038ZM86.9639 16.0278H84.7399L84.3719 17.0918H83.1959L85.2039 11.4998H86.5079L88.5159 17.0918H87.3319L86.9639 16.0278ZM86.6599 15.1318L85.8519 12.7958L85.0439 15.1318H86.6599ZM92.2745 14.2278C92.5892 14.2865 92.8478 14.4438 93.0505 14.6998C93.2532 14.9558 93.3545 15.2491 93.3545 15.5798C93.3545 15.8785 93.2798 16.1425 93.1305 16.3718C92.9865 16.5958 92.7758 16.7718 92.4985 16.8998C92.2212 17.0278 91.8932 17.0918 91.5145 17.0918H89.1065V11.5078H91.4105C91.7892 11.5078 92.1145 11.5691 92.3865 11.6918C92.6638 11.8145 92.8718 11.9851 93.0105 12.2038C93.1545 12.4225 93.2265 12.6705 93.2265 12.9478C93.2265 13.2731 93.1385 13.5451 92.9625 13.7638C92.7918 13.9825 92.5625 14.1371 92.2745 14.2278ZM90.2265 13.8118H91.2505C91.5172 13.8118 91.7225 13.7531 91.8665 13.6358C92.0105 13.5131 92.0825 13.3398 92.0825 13.1158C92.0825 12.8918 92.0105 12.7185 91.8665 12.5958C91.7225 12.4731 91.5172 12.4118 91.2505 12.4118H90.2265V13.8118ZM91.3545 16.1798C91.6265 16.1798 91.8372 16.1158 91.9865 15.9878C92.1412 15.8598 92.2185 15.6785 92.2185 15.4438C92.2185 15.2038 92.1385 15.0171 91.9785 14.8838C91.8185 14.7451 91.6025 14.6758 91.3305 14.6758H90.2265V16.1798H91.3545ZM95.2071 16.2038H97.0471V17.0918H94.0871V11.5078H95.2071V16.2038ZM98.719 12.4118V13.8118H100.599V14.6998H98.719V16.1798H100.839V17.0918H97.599V11.4998H100.839V12.4118H98.719ZM106.035 17.1478C105.512 17.1478 105.032 17.0251 104.595 16.7798C104.158 16.5345 103.811 16.1958 103.555 15.7638C103.299 15.3265 103.171 14.8331 103.171 14.2838C103.171 13.7398 103.299 13.2518 103.555 12.8198C103.811 12.3825 104.158 12.0411 104.595 11.7958C105.032 11.5505 105.512 11.4278 106.035 11.4278C106.563 11.4278 107.043 11.5505 107.475 11.7958C107.912 12.0411 108.256 12.3825 108.507 12.8198C108.763 13.2518 108.891 13.7398 108.891 14.2838C108.891 14.8331 108.763 15.3265 108.507 15.7638C108.256 16.1958 107.912 16.5345 107.475 16.7798C107.038 17.0251 106.558 17.1478 106.035 17.1478ZM106.035 16.1478C106.371 16.1478 106.667 16.0731 106.923 15.9238C107.179 15.7691 107.379 15.5505 107.523 15.2678C107.667 14.9851 107.739 14.6571 107.739 14.2838C107.739 13.9105 107.667 13.5851 107.523 13.3078C107.379 13.0251 107.179 12.8091 106.923 12.6598C106.667 12.5105 106.371 12.4358 106.035 12.4358C105.699 12.4358 105.4 12.5105 105.139 12.6598C104.883 12.8091 104.683 13.0251 104.539 13.3078C104.395 13.5851 104.323 13.9105 104.323 14.2838C104.323 14.6571 104.395 14.9851 104.539 15.2678C104.683 15.5505 104.883 15.7691 105.139 15.9238C105.4 16.0731 105.699 16.1478 106.035 16.1478ZM114.34 17.0918H113.22L110.684 13.2598V17.0918H109.564V11.4998H110.684L113.22 15.3398V11.4998H114.34V17.0918Z" fill="white"></path><path d="M80.3489 24.1918L76.2289 38.0918H73.6489L70.7289 27.5718L67.6289 38.0918L65.0689 38.1118L61.1289 24.1918H63.5489L66.4289 35.5118L69.5489 24.1918H72.1089L75.0089 35.4518L77.9089 24.1918H80.3489ZM92.3293 32.3118C92.3293 32.7251 92.3027 33.0985 92.2493 33.4318H83.8293C83.896 34.3118 84.2227 35.0185 84.8093 35.5518C85.396 36.0851 86.116 36.3518 86.9693 36.3518C88.196 36.3518 89.0627 35.8385 89.5693 34.8118H92.0293C91.696 35.8251 91.0893 36.6585 90.2093 37.3118C89.3427 37.9518 88.2627 38.2718 86.9693 38.2718C85.916 38.2718 84.9693 38.0385 84.1293 37.5718C83.3027 37.0918 82.6493 36.4251 82.1693 35.5718C81.7027 34.7051 81.4693 33.7051 81.4693 32.5718C81.4693 31.4385 81.696 30.4451 82.1493 29.5918C82.616 28.7251 83.2627 28.0585 84.0893 27.5918C84.9293 27.1251 85.8893 26.8918 86.9693 26.8918C88.0093 26.8918 88.936 27.1185 89.7493 27.5718C90.5627 28.0251 91.196 28.6651 91.6493 29.4918C92.1027 30.3051 92.3293 31.2451 92.3293 32.3118ZM89.9493 31.5918C89.936 30.7518 89.636 30.0785 89.0493 29.5718C88.4627 29.0651 87.736 28.8118 86.8693 28.8118C86.0827 28.8118 85.4093 29.0651 84.8493 29.5718C84.2893 30.0651 83.956 30.7385 83.8493 31.5918H89.9493ZM96.8531 28.7118C97.2398 28.1785 97.7664 27.7451 98.4331 27.4118C99.1131 27.0651 99.8664 26.8918 100.693 26.8918C101.666 26.8918 102.546 27.1251 103.333 27.5918C104.12 28.0585 104.74 28.7251 105.193 29.5918C105.646 30.4451 105.873 31.4251 105.873 32.5318C105.873 33.6385 105.646 34.6318 105.193 35.5118C104.74 36.3785 104.113 37.0585 103.313 37.5518C102.526 38.0318 101.653 38.2718 100.693 38.2718C99.8398 38.2718 99.0798 38.1051 98.4131 37.7718C97.7598 37.4385 97.2398 37.0118 96.8531 36.4918V38.0918H94.5731V23.2918H96.8531V28.7118ZM103.553 32.5318C103.553 31.7718 103.393 31.1185 103.073 30.5718C102.766 30.0118 102.353 29.5918 101.833 29.3118C101.326 29.0185 100.78 28.8718 100.193 28.8718C99.6198 28.8718 99.0731 29.0185 98.5531 29.3118C98.0464 29.6051 97.6331 30.0318 97.3131 30.5918C97.0064 31.1518 96.8531 31.8118 96.8531 32.5718C96.8531 33.3318 97.0064 33.9985 97.3131 34.5718C97.6331 35.1318 98.0464 35.5585 98.5531 35.8518C99.0731 36.1451 99.6198 36.2918 100.193 36.2918C100.78 36.2918 101.326 36.1451 101.833 35.8518C102.353 35.5451 102.766 35.1051 103.073 34.5318C103.393 33.9585 103.553 33.2918 103.553 32.5318ZM112.128 38.2718C111.261 38.2718 110.481 38.1185 109.788 37.8118C109.108 37.4918 108.568 37.0651 108.168 36.5318C107.768 35.9851 107.554 35.3785 107.528 34.7118H109.888C109.928 35.1785 110.148 35.5718 110.548 35.8918C110.961 36.1985 111.474 36.3518 112.088 36.3518C112.728 36.3518 113.221 36.2318 113.568 35.9918C113.928 35.7385 114.108 35.4185 114.108 35.0318C114.108 34.6185 113.908 34.3118 113.508 34.1118C113.121 33.9118 112.501 33.6918 111.648 33.4518C110.821 33.2251 110.148 33.0051 109.628 32.7918C109.108 32.5785 108.654 32.2518 108.268 31.8118C107.894 31.3718 107.708 30.7918 107.708 30.0718C107.708 29.4851 107.881 28.9518 108.228 28.4718C108.574 27.9785 109.068 27.5918 109.708 27.3118C110.361 27.0318 111.108 26.8918 111.948 26.8918C113.201 26.8918 114.208 27.2118 114.968 27.8518C115.741 28.4785 116.154 29.3385 116.208 30.4318H113.928C113.888 29.9385 113.688 29.5451 113.328 29.2518C112.968 28.9585 112.481 28.8118 111.868 28.8118C111.268 28.8118 110.808 28.9251 110.488 29.1518C110.168 29.3785 110.008 29.6785 110.008 30.0518C110.008 30.3451 110.114 30.5918 110.328 30.7918C110.541 30.9918 110.801 31.1518 111.108 31.2718C111.414 31.3785 111.868 31.5185 112.468 31.6918C113.268 31.9051 113.921 32.1251 114.428 32.3518C114.948 32.5651 115.394 32.8851 115.768 33.3118C116.141 33.7385 116.334 34.3051 116.348 35.0118C116.348 35.6385 116.174 36.1985 115.828 36.6918C115.481 37.1851 114.988 37.5718 114.348 37.8518C113.721 38.1318 112.981 38.2718 112.128 38.2718ZM119.971 25.6118C119.558 25.6118 119.211 25.4718 118.931 25.1918C118.651 24.9118 118.511 24.5651 118.511 24.1518C118.511 23.7385 118.651 23.3918 118.931 23.1118C119.211 22.8318 119.558 22.6918 119.971 22.6918C120.371 22.6918 120.711 22.8318 120.991 23.1118C121.271 23.3918 121.411 23.7385 121.411 24.1518C121.411 24.5651 121.271 24.9118 120.991 25.1918C120.711 25.4718 120.371 25.6118 119.971 25.6118ZM121.091 27.0718V38.0918H118.811V27.0718H121.091ZM126.745 28.9318V35.0318C126.745 35.4451 126.838 35.7451 127.025 35.9318C127.225 36.1051 127.558 36.1918 128.025 36.1918H129.425V38.0918H127.625C126.598 38.0918 125.811 37.8518 125.265 37.3718C124.718 36.8918 124.445 36.1118 124.445 35.0318V28.9318H123.145V27.0718H124.445V24.3318H126.745V27.0718H129.425V28.9318H126.745ZM141.626 32.3118C141.626 32.7251 141.6 33.0985 141.546 33.4318H133.126C133.193 34.3118 133.52 35.0185 134.106 35.5518C134.693 36.0851 135.413 36.3518 136.266 36.3518C137.493 36.3518 138.36 35.8385 138.866 34.8118H141.326C140.993 35.8251 140.386 36.6585 139.506 37.3118C138.64 37.9518 137.56 38.2718 136.266 38.2718C135.213 38.2718 134.266 38.0385 133.426 37.5718C132.6 37.0918 131.946 36.4251 131.466 35.5718C131 34.7051 130.766 33.7051 130.766 32.5718C130.766 31.4385 130.993 30.4451 131.446 29.5918C131.913 28.7251 132.56 28.0585 133.386 27.5918C134.226 27.1251 135.186 26.8918 136.266 26.8918C137.306 26.8918 138.233 27.1185 139.046 27.5718C139.86 28.0251 140.493 28.6651 140.946 29.4918C141.4 30.3051 141.626 31.2451 141.626 32.3118ZM139.246 31.5918C139.233 30.7518 138.933 30.0785 138.346 29.5718C137.76 29.0651 137.033 28.8118 136.166 28.8118C135.38 28.8118 134.706 29.0651 134.146 29.5718C133.586 30.0651 133.253 30.7385 133.146 31.5918H139.246Z" fill="white"></path></svg>