<svg width="20" height="20" viewBox="0 0 20 20" fill="none" xmlns="http://www.w3.org/2000/svg">
<path d="M19.3171 12.22C19.5573 11.66 19.5773 11.19 19.3671 10.83C19.1369 10.42 18.6265 10.15 17.8358 10.04V3.96C17.8358 3.81 17.8358 3.66 17.7757 3.51C17.4254 2.72 17.0951 1.94 16.7548 1.15L16.4245 0.38C16.3645 0.22 16.2744 0 15.9841 0C15.6839 0 15.6038 0.23 15.5538 0.37L15.1434 1.37C14.8431 2.08 14.5529 2.79 14.2526 3.5C14.1825 3.66 14.1825 3.8 14.1825 3.93V5.39C14.1825 6.36 14.1825 7.34 14.1825 8.3C14.1825 8.49 14.1425 8.55 13.9624 8.62C13.2317 8.92 12.5111 9.21 11.7904 9.51L10.8296 9.91C10.8296 9.91 10.7795 9.93 10.7495 9.95C10.6995 9.97 10.6494 10 10.5994 10H7.75686C7.75686 10 7.75686 9.93 7.75686 9.89C7.73684 9.2 7.67679 9.15 6.96616 9.15H0.780691C0.0600531 9.15 0 9.2 0 9.9V16.71C0 17.61 0 18.51 0 19.41C0 19.57 0.0200177 19.76 0.140124 19.87C0.230204 19.96 0.360319 20 0.530469 20H4.89433C5.07449 20 5.2046 19.96 5.28467 19.87C5.37475 19.78 5.41479 19.65 5.41479 19.49V18.95H6.67591C7.59672 18.95 7.66678 18.91 7.74685 18.04L8.14721 18.21C8.56758 18.37 8.98795 18.54 9.40832 18.7C9.6085 18.78 9.80868 18.82 10.0189 18.82H10.0389C11.7504 18.81 13.4719 18.8 15.1834 18.8H16.0442C16.6748 18.8 17.1752 18.57 17.4354 18.18C17.6957 17.81 17.7257 17.33 17.5455 16.8C18.5164 16.43 18.8267 15.85 18.5864 14.89C19.3271 14.8 19.7775 14.47 19.9376 13.84C20.1178 13.18 19.9076 12.63 19.3071 12.21L19.3171 12.22ZM4.50398 19.1H0.910806V10H4.49398V19.1H4.50398ZM6.84606 18.05H5.45482V10.01H6.84606V18.05ZM15.0533 5.59V4.22H16.935V5.59H15.0533ZM16.935 6.5V10.04H15.0633V6.5H16.935ZM15.2635 3.32L15.9841 1.56L16.7348 3.32H15.2635ZM18.4864 14.02C17.6256 14.02 16.7648 14.02 15.9141 14H14.6029C14.4328 14 14.3027 14.04 14.2126 14.13C14.1425 14.21 14.1025 14.32 14.1125 14.45C14.1325 14.83 14.4828 14.85 14.5829 14.86C15.2535 14.9 15.9341 14.9 16.5947 14.9H17.1352C17.7157 14.9 17.7957 15.18 17.8057 15.4C17.8057 15.56 17.7657 15.69 17.6756 15.79C17.5655 15.9 17.3654 15.97 17.1251 15.97H15.0233C14.8531 15.97 14.653 15.97 14.5329 16.11C14.4528 16.18 14.4228 16.29 14.4228 16.44C14.4228 16.85 14.7931 16.85 14.9833 16.85H15.3135C15.6138 16.85 15.8941 16.85 16.1943 16.85C16.5947 16.85 16.7949 17.05 16.7949 17.4C16.7949 17.57 16.7448 17.71 16.6547 17.79C16.5546 17.89 16.3945 17.95 16.1943 17.94C14.4027 17.92 12.5211 17.94 10.0789 17.98H10.0589C9.81869 17.98 9.61851 17.88 9.3883 17.78C9.30823 17.74 9.21815 17.7 9.12807 17.66C8.97794 17.6 8.8178 17.56 8.65766 17.51C8.30735 17.41 7.94703 17.31 7.80691 17.08C7.66678 16.85 7.69681 16.49 7.72683 16.14C7.72683 15.98 7.75686 15.81 7.75686 15.67C7.75686 14.6 7.75686 13.53 7.75686 12.46V10.87H8.38742C9.07803 10.87 9.74862 10.87 10.4192 10.87C10.6794 10.87 10.9197 10.82 11.1599 10.71C11.9606 10.37 12.8514 10 13.8823 9.58C13.9123 9.58 13.9523 9.55 13.9924 9.53C14.0524 9.5 14.1025 9.47 14.1625 9.46C14.1625 9.53 14.1625 9.6 14.1625 9.66C14.1625 9.91 14.1625 10.11 14.0024 10.3C13.9123 10.4 13.8923 10.53 13.9423 10.64C14.0124 10.81 14.2426 10.93 14.4828 10.93C15.2335 10.93 15.9941 10.93 16.7448 10.93H17.7557C17.8658 10.93 17.9759 10.93 18.086 10.93C18.4263 10.95 18.6365 11.19 18.6265 11.5C18.6065 11.83 18.3963 12.01 18.056 12.01C17.1552 12.01 16.2444 12.01 15.3436 12.01C15.0433 12.01 14.9232 12.12 14.8531 12.21C14.8031 12.29 14.753 12.42 14.8231 12.6C14.9132 12.9 15.1734 12.91 15.3636 12.9H18.4864C18.7166 12.9 18.8967 12.97 18.9968 13.09C19.0969 13.2 19.1369 13.35 19.1169 13.52C19.0769 13.84 18.8567 14 18.4763 14L18.4864 14.02Z" fill="white"/>
<path d="M13.2321 3.74984C13.2321 3.91984 13.1721 4.01984 13.122 4.06984C13.042 4.14984 12.9219 4.19984 12.7717 4.19984H10.5398C10.2495 4.19984 10.0693 4.02984 10.0693 3.77984C10.0693 3.64984 10.1094 3.53984 10.1894 3.45984C10.2695 3.37984 10.3996 3.33984 10.5598 3.33984H12.7717C13.062 3.33984 13.2221 3.48984 13.2321 3.74984Z" fill="white"/>
<path d="M13.2121 2.34985C13.1921 2.53985 13.082 2.68985 12.9319 2.74985C12.8919 2.76985 12.8418 2.77985 12.7918 2.77985C12.7017 2.77985 12.6116 2.73985 12.5315 2.67985C11.961 2.18985 11.3905 1.66985 10.8601 1.16985C10.6699 0.99985 10.6599 0.75985 10.82 0.56985C11.0002 0.37985 11.2404 0.36985 11.4306 0.53985C11.9811 1.02985 12.5315 1.52985 13.072 2.01985C13.1721 2.11985 13.2222 2.24985 13.2021 2.35985L13.2121 2.34985Z" fill="white"/>
<path d="M3.15195 16.1001V17.4501C3.15195 17.6701 3.15195 17.8901 3.15195 18.1101C3.15195 18.2701 3.11195 18.4001 3.02195 18.4901C2.94195 18.5701 2.83195 18.6101 2.70195 18.6101H2.69195C2.57195 18.6101 2.46195 18.5701 2.38195 18.4901C2.29195 18.4101 2.25195 18.2801 2.25195 18.1101V16.1001C2.25195 15.9401 2.30195 15.8101 2.39195 15.7301C2.44195 15.6701 2.55195 15.6201 2.72195 15.6201C2.98195 15.6301 3.13195 15.8101 3.14195 16.0901L3.15195 16.1001Z" fill="white"/>
</svg>
